/* XPM */ 
static const unsigned char * bitcoin16_xpm[] = {
"16 16 193 2",
"  	c None",
"! 	c black",
"# 	c #000001",
"$ 	c #0E1B09",
"% 	c #0A1407",
"& 	c #152C0C",
"' 	c #1A360F",
"( 	c #060A05",
") 	c #0E1B08",
"* 	c #0F1D08",
"+ 	c #11230A",
", 	c #326918",
"- 	c #2E6814",
". 	c #2B6714",
"0 	c #296212",
"1 	c #306A14",
"2 	c #336617",
"3 	c #172B0D",
"4 	c #0B1307",
"5 	c #14290C",
"6 	c #1C3D0F",
"7 	c #2B6412",
"8 	c #224D11",
"9 	c #245011",
": 	c #265412",
"; 	c #224C10",
"< 	c #234911",
"= 	c #285812",
"> 	c #326B14",
"? 	c #1C3A10",
"@ 	c #13250B",
"A 	c #0C1808",
"B 	c #1F430F",
"C 	c #245510",
"D 	c #265612",
"E 	c #317215",
"F 	c #234E11",
"G 	c #17330C",
"H 	c #19350D",
"I 	c #265512",
"J 	c #347115",
"K 	c #285512",
"L 	c #2C6311",
"M 	c #1D3A10",
"N 	c #0B1507",
"O 	c #18330E",
"P 	c #265E0F",
"Q 	c #275813",
"R 	c #2B6415",
"S 	c #081006",
"T 	c #0B1706",
"U 	c #316F15",
"V 	c #265312",
"W 	c #2C6713",
"X 	c #13260B",
"Y 	c #11220B",
"Z 	c #2A6314",
"[ 	c #225111",
"] 	c #306F14",
"^ 	c #050C04",
"_ 	c #0D0A06",
"` 	c #2E2411",
"a 	c #1D1506",
"b 	c #3B3B0F",
"c 	c #306F13",
"d 	c #245411",
"e 	c #295E15",
"f 	c #0C1709",
"g 	c #080E06",
"h 	c #244F11",
"i 	c #1F4610",
"j 	c #050403",
"k 	c #070503",
"l 	c #1D180D",
"m 	c #47370F",
"n 	c #4D3A0D",
"o 	c #533D12",
"p 	c #61460C",
"q 	c #245611",
"r 	c #1E470F",
"s 	c #286412",
"t 	c #1E3D11",
"u 	c #2A6111",
"v 	c #295C12",
"w 	c #12250A",
"x 	c #110D09",
"y 	c #473713",
"z 	c #6D5414",
"{ 	c #15100A",
"| 	c #664D0E",
"} 	c #48350B",
"~ 	c #5E440E",
" !	c #402D07",
"!!	c #17370D",
"#!	c #1C470D",
"$!	c #246311",
"%!	c #162F0E",
"&!	c #1C3810",
"'!	c #2A6312",
"(!	c #2C6213",
")!	c #291F0E",
"*!	c #4D3B0F",
"+!	c #513D0E",
",!	c #2B2010",
"-!	c #71530E",
".!	c #22190B",
"0!	c #926914",
"1!	c #372708",
"2!	c #16360C",
"3!	c #1D4B0E",
"4!	c #216011",
"5!	c #112A0C",
"6!	c #091307",
"7!	c #337315",
"8!	c #285511",
"9!	c #20450F",
":!	c #5C4610",
";!	c #513C0E",
"<!	c #73570F",
"=!	c #62480C",
">!	c #674C10",
"?!	c #6D4D0B",
"@!	c #725010",
"A!	c #312107",
"B!	c #1E5010",
"C!	c #1A480E",
"D!	c #206010",
"E!	c #070F06",
"F!	c #326D16",
"G!	c #265112",
"H!	c #347416",
"I!	c #111207",
"J!	c #0A0804",
"K!	c #080603",
"L!	c #100B04",
"M!	c #010101",
"N!	c #140E05",
"O!	c #2A1E0A",
"P!	c #131B08",
"Q!	c #266C12",
"R!	c #1A4C0F",
"S!	c #215D13",
"T!	c #091606",
"U!	c #19320E",
"V!	c #2A6211",
"W!	c #2A5E13",
"X!	c #2A6113",
"Y!	c #060C05",
"Z!	c #081106",
"[!	c #236413",
"]!	c #1C4D0F",
"^!	c #1E5F11",
"_!	c #0C1F0A",
"`!	c #101F0A",
"a!	c #20460F",
"b!	c #285C12",
"c!	c #2E7114",
"d!	c #1C450F",
"e!	c #12290A",
"f!	c #112B0B",
"g!	c #1B4A0E",
"h!	c #246911",
"i!	c #1C500F",
"j!	c #1B560E",
"k!	c #13360D",
"l!	c #091607",
"m!	c #172F0D",
"n!	c #1C420F",
"o!	c #276010",
"p!	c #1F4B10",
"q!	c #1F4F0F",
"r!	c #22580F",
"s!	c #1D500E",
"t!	c #19460D",
"u!	c #1A4E0F",
"v!	c #1C5D0F",
"w!	c #153A0D",
"x!	c #0D2309",
"y!	c #0E1F08",
"z!	c #132B0B",
"{!	c #286614",
"|!	c #256911",
"}!	c #1E5B0F",
"~!	c #226611",
" #	c #1F5C11",
"!#	c #112D0C",
"##	c #071206",
"$#	c #010002",
"%#	c #0E1F09",
"&#	c #091507",
"'#	c #122D0C",
"(#	c #15370E",
")#	c #0B1C08",
"! ! ! ! # $ % & ' ( ) ! ! ! ! ! ",
"! ! ! * + , - . 0 1 2 3 4 ! ! ! ",
"! ! 5 6 7 8 9 : ; < = > ? @ ! ! ",
"! A B C D E F G H I J K L M N ! ",
"! O P Q R S # ! ! # T U V W X ! ",
"Y Z [ ] ^ ! ! # _ ` a b c d e f ",
"g ] h i # j k l m n o p q r s ( ",
"t u v w x y z { | } ~  !!!#!$!%!",
"&!'!(!w )!*!+!,!-!.!0!1!2!3!4!5!",
"6!7!8!9!:!;!<!=!>!?!@!A!B!C!D!E!",
"X F!G!H!I!J!K!L!M!N!O!P!Q!R!S!T!",
"! U!V!W!X!Y!! ! ! # Z![!]!^!_!! ",
"! `!a!C b!c!d!e!f!g!h!i!j!k!l!! ",
"! ! m!n!o!p!q!r!s!t!u!v!w!x!! ! ",
"! ! ! y!z!{!|!4!}!~! #!###! ! ! ",
"! ! ! ! $#%#&#'#(#Y!)#! ! ! ! ! "};