/* XPM */ 
static const unsigned char * bitcoin20_xpm[] = {
"20 20 303 2",
"  	c None",
"! 	c black",
"# 	c #000001",
"$ 	c #0C1508",
"% 	c #010103",
"& 	c #17300E",
"' 	c #091107",
"( 	c #14260C",
") 	c #0E1C09",
"* 	c #030504",
"+ 	c #0A1206",
", 	c #0D1808",
"- 	c #030503",
". 	c #1D3C10",
"0 	c #204411",
"1 	c #2E6516",
"2 	c #2A6513",
"3 	c #2F6C15",
"4 	c #2A5A12",
"5 	c #285215",
"6 	c #14270B",
"7 	c #080C05",
"8 	c #0B1207",
"9 	c #000100",
": 	c #010201",
"; 	c #11240A",
"< 	c #2D6117",
"= 	c #397F17",
"> 	c #22520E",
"? 	c #245112",
"@ 	c #1B400F",
"A 	c #132C09",
"B 	c #2A5F13",
"C 	c #285C11",
"D 	c #3D8019",
"E 	c #316419",
"F 	c #0C1608",
"G 	c #020302",
"H 	c #040903",
"I 	c #2D5F1A",
"J 	c #2B6413",
"K 	c #23530F",
"L 	c #234C11",
"M 	c #1E410F",
"N 	c #3A8618",
"O 	c #377919",
"P 	c #357818",
"Q 	c #3D831A",
"R 	c #1E3F0E",
"S 	c #204410",
"T 	c #316912",
"U 	c #2B5E14",
"V 	c #33621C",
"W 	c #010202",
"X 	c #0C1707",
"Y 	c #0C1709",
"Z 	c #316F14",
"[ 	c #17380B",
"] 	c #2D6215",
"^ 	c #307416",
"_ 	c #285B11",
"` 	c #132B0B",
"a 	c #0E1E09",
"b 	c #0F1F09",
"c 	c #1C3A0F",
"d 	c #2A6111",
"e 	c #357415",
"f 	c #2A5814",
"g 	c #23500E",
"h 	c #2C5B12",
"i 	c #0E1B0A",
"j 	c #0B1307",
"k 	c #091406",
"l 	c #2D6515",
"m 	c #20540E",
"n 	c #2A5C14",
"o 	c #357A18",
"p 	c #12280C",
"q 	c #010101",
"r 	c #010001",
"s 	c #050803",
"t 	c #17340C",
"u 	c #387C17",
"v 	c #2A5815",
"w 	c #286011",
"x 	c #2D6016",
"y 	c #040703",
"z 	c #0D1908",
"{ 	c #388618",
"| 	c #1C3D10",
"} 	c #357A17",
"~ 	c #0F2009",
" !	c #110D08",
"!!	c #1C1708",
"#!	c #1E3A0F",
"$!	c #307014",
"%!	c #214812",
"&!	c #317515",
"'!	c #142C0D",
"(!	c #0A1007",
")!	c #040604",
"*!	c #2C5E16",
"+!	c #1D450C",
",!	c #22500F",
"-!	c #224F0F",
".!	c #070505",
"0!	c #140F08",
"1!	c #54411C",
"2!	c #846111",
"3!	c #40330B",
"4!	c #296311",
"5!	c #19380B",
"6!	c #245B0E",
"7!	c #204813",
"8!	c #010203",
"9!	c #162A0D",
":!	c #296211",
";!	c #235211",
"<!	c #3F8D19",
"=!	c #11250B",
">!	c #010002",
"?!	c #1B1509",
"@!	c #0B0804",
"A!	c #231B09",
"B!	c #2D2412",
"C!	c #7B5F13",
"D!	c #150F07",
"E!	c #916D14",
"F!	c #7D5A0D",
"G!	c #37270E",
"H!	c #1A3B0E",
"I!	c #327D15",
"J!	c #235A11",
"K!	c #215411",
"L!	c #0E1D0A",
"M!	c #152A0D",
"N!	c #357616",
"O!	c #142B0B",
"P!	c #357C17",
"Q!	c #0A1207",
"R!	c #110D09",
"S!	c #3D2F12",
"T!	c #6D5316",
"U!	c #46360E",
"V!	c #17110B",
"W!	c #7C5E11",
"X!	c #0C0707",
"Y!	c #805F11",
"Z!	c #73510B",
"[!	c #1C1307",
"]!	c #10230A",
"^!	c #2B6E14",
"_!	c #15350C",
"`!	c #266613",
"a!	c #0D1B09",
"b!	c #0F1E0A",
"c!	c #307015",
"d!	c #18350D",
"e!	c #387F17",
"f!	c #0A1308",
"g!	c #2F2310",
"h!	c #110D06",
"i!	c #8B6B16",
"j!	c #392C10",
"k!	c #302411",
"l!	c #826010",
"m!	c #1A140A",
"n!	c #7A580F",
"o!	c #8E6513",
"p!	c #140E07",
"q!	c #0F230A",
"r!	c #2A7013",
"s!	c #163B0D",
"t!	c #205C11",
"u!	c #081206",
"v!	c #1D3710",
"w!	c #336D14",
"x!	c #234F12",
"y!	c #429219",
"z!	c #0F1F0A",
"{!	c #584212",
"|!	c #46350E",
"}!	c #56410E",
"~!	c #4C380C",
" #	c #2B2009",
"!#	c #8C6713",
"##	c #43300B",
"$#	c #705110",
"%#	c #7D560F",
"&#	c #110B05",
"'#	c #15340D",
"(#	c #2C7A14",
")#	c #1D5311",
"*#	c #215A12",
"+#	c #0F240B",
",#	c #020303",
"-#	c #2A5B15",
".#	c #1D430C",
"0#	c #265410",
"1#	c #224D10",
"2#	c #392D0C",
"3#	c #6A5011",
"4#	c #070403",
"5#	c #72540C",
"6#	c #60450C",
"7#	c #0C0804",
"8#	c #6F500B",
"9#	c #4E380B",
":#	c #6B4C0F",
";#	c #070504",
"<#	c #225D11",
"=#	c #14350B",
">#	c #1B540D",
"?#	c #153C0E",
"@#	c #101F08",
"A#	c #1B360F",
"B#	c #408E18",
"C#	c #214712",
"D#	c #020103",
"E#	c #1D150A",
"F#	c #13300B",
"G#	c #266C13",
"H#	c #1A4710",
"I#	c #246F11",
"J#	c #14340F",
"K#	c #071006",
"L#	c #091006",
"M#	c #316D17",
"N#	c #2F6716",
"O#	c #357A16",
"P#	c #0F200A",
"Q#	c #010102",
"R#	c #040603",
"S#	c #102A0B",
"T#	c #287314",
"U#	c #1F5411",
"V#	c #1C560F",
"W#	c #1E5714",
"X#	c #020502",
"Y#	c #0F1D09",
"Z#	c #101E0B",
"[#	c #337514",
"]#	c #13300A",
"^#	c #2F6816",
"_#	c #317914",
"`#	c #204F11",
"a#	c #0F210A",
"b#	c #0A1607",
"c#	c #0A1608",
"d#	c #132E0C",
"e#	c #1C530E",
"f#	c #267111",
"g#	c #1D5110",
"h#	c #15430C",
"i#	c #19530E",
"j#	c #0C1F0A",
"k#	c #040802",
"l#	c #30671B",
"m#	c #2F7014",
"n#	c #1E4C0D",
"o#	c #1F4911",
"p#	c #1F4A0E",
"q#	c #328615",
"r#	c #2D7713",
"s#	c #2A7513",
"t#	c #2B7E14",
"u#	c #18450D",
"v#	c #15390D",
"w#	c #1B5B0E",
"x#	c #1E5F11",
"y#	c #1F5715",
"z#	c #030403",
"{#	c #0F220A",
"|#	c #2B6716",
"}#	c #328014",
"~#	c #18460B",
" $	c #1D4A10",
"!$	c #163A0D",
"#$	c #0F2709",
"$$	c #1E5311",
"%$	c #194B0C",
"&$	c #257812",
"'$	c #1E5C13",
"($	c #091407",
")$	c #030603",
"*$	c #000101",
"+$	c #0D1C08",
",$	c #050A04",
"-$	c #17370E",
".$	c #1F4D11",
"0$	c #246611",
"1$	c #226612",
"2$	c #256C12",
"3$	c #1D590F",
"4$	c #1E5212",
"5$	c #0E220B",
"6$	c #071206",
"7$	c #0C1907",
"8$	c #14320D",
"9$	c #091507",
":$	c #10280B",
";$	c #0B1D08",
"<$	c #030703",
"! ! ! ! ! # $ % & ' ( ) * + ! ! ! ! ! ! ",
"! ! ! ! , - . 0 1 2 3 4 5 6 7 8 ! ! ! ! ",
"! ! 9 : ; < = > ? @ A B C D E F G ! ! ! ",
"! ! H I J K L M N O P Q R S T U V W ! ! ",
"! X Y Z [ ] ^ _ ` a b c d e f g h i j ! ",
"! k l m n o p q r # ! # s t u v w x y ! ",
"z p { | } ~ q ! ! ! #  !! !!#!$!%!&!'!(!",
")!*!+!,!-!G ! ! % .!0!1!0!2!3!4!5!6!7!8!",
"9!:!;!<!=!>!?!@!A!B!C!D!E!F!G!H!I!J!K!L!",
"M!N!O!P!Q!R!S!T!U!V!W!X!Y!Z![!]!^!_!`!a!",
"b!c!d!e!f!g!h!i!j!k!l!m!n!o!p!q!r!s!t!u!",
"v!w!x!y!z!{!|!}!~! #!###$#%#&#'#(#)#*#+#",
",#-#.#0#1#2#3#4#5#6#7#8#9#:#;#<#=#>#?#q ",
"@#A#B#C#= ) D## # # # # r E#F#G#H#I#J#K#",
"! L#M#g N#O#P#Q#! ! ! # R#S#T#U#V#W#X#! ",
"! Y#Z#[#]#^#_#`#a#b#c#d#e#f#g#h#i#j#u!! ",
"! ! k#l#m#n#o#p#q#r#s#t#u#v#w#x#y#W ! ! ",
"! ! : z#{#|#}#~# $!$#$$$%$&$'$($)$*$! ! ",
"! ! ! ! +$,$-$.$0$1$2$3$4$5$6$6$! ! ! ! ",
"! ! ! ! ! >!7$W 8$9$:$;$<$6$! ! ! ! ! ! "};