/* XPM */ 
static const unsigned char * bitcoin32_xpm[] = {
"32 32 681 2",
"  	c None",
"! 	c black",
"# 	c #010001",
"$ 	c #020203",
"% 	c #010102",
"& 	c #010002",
"' 	c #0B1508",
"( 	c #18330D",
") 	c #020102",
"* 	c #234413",
"+ 	c #010101",
", 	c #000102",
"- 	c #264814",
". 	c #0F1F0C",
"0 	c #020103",
"1 	c #1A3812",
"2 	c #336D1D",
"3 	c #070F05",
"4 	c #12250C",
"5 	c #336E1B",
"6 	c #12220D",
"7 	c #030404",
"8 	c #244313",
"9 	c #15270B",
": 	c #18290D",
"; 	c #020302",
"< 	c #284F18",
"= 	c #2E6319",
"> 	c #1F4011",
"? 	c #285514",
"@ 	c #347818",
"A 	c #357717",
"B 	c #2F6A16",
"C 	c #367816",
"D 	c #2B5811",
"E 	c #1D3A11",
"F 	c #39751C",
"G 	c #1D3412",
"H 	c #0A0D06",
"I 	c #14210C",
"J 	c #204810",
"K 	c #2C5A1B",
"L 	c #152D09",
"M 	c #356A16",
"N 	c #3F8918",
"O 	c #3B8E18",
"P 	c #337F14",
"Q 	c #123809",
"R 	c #317417",
"S 	c #276110",
"T 	c #1A470D",
"U 	c #3C8C16",
"V 	c #3B8C18",
"W 	c #408A19",
"X 	c #356516",
"Y 	c #162C0F",
"Z 	c #39711E",
"[ 	c #16290C",
"] 	c #000002",
"^ 	c #0A1007",
"_ 	c #040703",
"` 	c #16300F",
"a 	c #367317",
"b 	c #378A17",
"c 	c #388718",
"d 	c #0E2009",
"e 	c #0B1D06",
"f 	c #285315",
"g 	c #030504",
"h 	c #265114",
"i 	c #172D0C",
"j 	c #050903",
"k 	c #2D5F19",
"l 	c #061006",
"m 	c #1E450E",
"n 	c #409019",
"o 	c #3A8317",
"p 	c #376C19",
"q 	c #11220D",
"r 	c #010203",
"s 	c #0B1407",
"t 	c #050804",
"u 	c #102209",
"v 	c #336D1E",
"w 	c #1A3910",
"x 	c #3E8B18",
"y 	c #367C15",
"z 	c #091905",
"{ 	c #265112",
"| 	c #1D3B10",
"} 	c #1C400F",
"~ 	c #408F18",
" !	c #2D6915",
"!!	c #43921C",
"#!	c #398618",
"$!	c #337517",
"%!	c #458E1C",
"&!	c #13280A",
"'!	c #295214",
"(!	c #1A3B0E",
")!	c #0D2205",
"*!	c #4B9A1A",
"+!	c #3E7E1B",
",!	c #214714",
"-!	c #356C1C",
".!	c #080C06",
"0!	c #060904",
"1!	c #245016",
"2!	c #3B8519",
"3!	c #276B13",
"4!	c #265714",
"5!	c #0A1308",
"6!	c #2E6315",
"7!	c #3C9017",
"8!	c #3C8719",
"9!	c #307116",
":!	c #327119",
";!	c #234E12",
"<!	c #2E6216",
"=!	c #2C6514",
">!	c #367D18",
"?!	c #3F8D1E",
"@!	c #419016",
"A!	c #204311",
"B!	c #0D1A08",
"C!	c #316C17",
"D!	c #337C14",
"E!	c #3F8219",
"F!	c #214114",
"G!	c #020104",
"H!	c #18300E",
"I!	c #162E10",
"J!	c #11240C",
"K!	c #3F8D18",
"L!	c #2A6111",
"M!	c #030301",
"N!	c #2A5E14",
"O!	c #3F901A",
"P!	c #388519",
"Q!	c #225110",
"R!	c #1A3610",
"S!	c #030804",
"T!	c #050904",
"U!	c #010303",
"V!	c #060805",
"W!	c #030303",
"X!	c #111E0A",
"Y!	c #132E09",
"Z!	c #2E6B14",
"[!	c #3F881A",
"]!	c #409319",
"^!	c #203D0F",
"_!	c #030703",
"`!	c #3D8816",
"a!	c #3F7F19",
"b!	c #13250E",
"c!	c #19320E",
"d!	c #121E0B",
"e!	c #081505",
"f!	c #37761F",
"g!	c #2C6B13",
"h!	c #2D7A13",
"i!	c #295E16",
"j!	c #1F4210",
"k!	c #2D6D15",
"l!	c #337718",
"m!	c #17310F",
"n!	c #080E06",
"o!	c #020002",
"p!	c #000001",
"q!	c #14220B",
"r!	c #17380C",
"s!	c #3B8A17",
"t!	c #2B5C12",
"u!	c #254713",
"v!	c #2F6818",
"w!	c #388A17",
"x!	c #2D6615",
"y!	c #32661B",
"z!	c #040803",
"{!	c #000101",
"|!	c #020303",
"}!	c #1F3E10",
"~!	c #3B8615",
" #	c #030B02",
"!#	c #19340F",
"##	c #3B8B15",
"$#	c #317416",
"%#	c #1B3610",
"&#	c #244E14",
"'#	c #398716",
"(#	c #3D8D19",
")#	c #081006",
"*#	c #10280A",
"+#	c #3C8515",
",#	c #13280B",
"-#	c #020101",
".#	c #172E0D",
"0#	c #15300F",
"1#	c #2F7314",
"2#	c #39861B",
"3#	c #15300C",
"4#	c #265512",
"5#	c #3C8B1A",
"6#	c #0B1C07",
"7#	c #010103",
"8#	c #020001",
"9#	c #0F0D08",
":#	c #010000",
";#	c #080502",
"<#	c #261D0E",
"=#	c #1B3F0F",
">#	c #3A8519",
"?#	c #1F460F",
"@#	c #224913",
"A#	c #368915",
"B#	c #245211",
"C#	c #183512",
"D#	c #192D0F",
"E#	c #040604",
"F#	c #254C17",
"G#	c #306A18",
"H#	c #347F15",
"I#	c #0D2707",
"J#	c #2F6616",
"K#	c #378C12",
"L#	c #255213",
"M#	c #0A1208",
"N#	c #000103",
"O#	c #332712",
"P#	c #9E7E36",
"Q#	c #090604",
"R#	c #030104",
"S#	c #6A4E12",
"T#	c #986F11",
"U#	c #13220D",
"V#	c #2C6812",
"W#	c #388C13",
"X#	c #20410F",
"Y#	c #173E0B",
"Z#	c #327E15",
"[#	c #35711E",
"]#	c #152E0D",
"^#	c #010104",
"_#	c #285611",
"`#	c #368114",
"a#	c #040702",
"b#	c #1F4311",
"c#	c #408C1C",
"d#	c #0C1908",
"e#	c #221E11",
"f#	c #020003",
"g#	c #312710",
"h#	c #20170B",
"i#	c #170F07",
"j#	c #483713",
"k#	c #261D11",
"l#	c #725111",
"m#	c #C99410",
"n#	c #100A06",
"o#	c #1B3910",
"p#	c #12260A",
"q#	c #0A1A05",
"r#	c #3B8E14",
"s#	c #17330D",
"t#	c #010202",
"u#	c #020503",
"v#	c #162C0D",
"w#	c #2D6A14",
"x#	c #347C16",
"y#	c #2C5F18",
"z#	c #419219",
"{#	c #2A6314",
"|#	c #091107",
"}#	c #000003",
"~#	c #0E0B08",
" $	c #050403",
"!$	c #060202",
"#$	c #171108",
"$$	c #3E3318",
"%$	c #120D06",
"&$	c #957514",
"'$	c #37290D",
"($	c #0C0704",
")$	c #C89B16",
"*$	c #4C3914",
"+$	c #6A4C10",
",$	c #956C0E",
"-$	c #18100C",
".$	c #0C1A08",
"0$	c #327F14",
"1$	c #358418",
"2$	c #265916",
"3$	c #318515",
"4$	c #1E490F",
"5$	c #13240F",
"6$	c #020403",
"7$	c #2D5515",
"8$	c #33721D",
"9$	c #398017",
":$	c #0C2307",
";$	c #0C1709",
"<$	c #358013",
"=$	c #245213",
">$	c #030103",
"?$	c #6A5418",
"@$	c #453614",
"A$	c #7B6014",
"B$	c #655011",
"C$	c #090505",
"D$	c #19150F",
"E$	c #7E600F",
"F$	c #543F0F",
"G$	c #A07710",
"H$	c #4B3712",
"I$	c #60430B",
"J$	c #845C0D",
"K$	c #060705",
"L$	c #2C6D15",
"M$	c #2A6712",
"N$	c #020502",
"O$	c #194B0C",
"P$	c #296F15",
"Q$	c #2A6619",
"R$	c #1C380F",
"S$	c #16290F",
"T$	c #3D8815",
"U$	c #275813",
"V$	c #264D14",
"W$	c #3A8D18",
"X$	c #1E4110",
"Y$	c #0A0807",
"Z$	c #362A18",
"[$	c #291E10",
"]$	c #44350F",
"^$	c #9D761E",
"_$	c #0B0704",
"`$	c #251D10",
"a$	c #5F480D",
"b$	c #674D0E",
"c$	c #16100B",
"d$	c #664B0E",
"e$	c #6A4F10",
"f$	c #64470E",
"g$	c #7B570C",
"h$	c #060A05",
"i$	c #255F13",
"j$	c #328315",
"k$	c #122F0C",
"l$	c #2A6D12",
"m$	c #266413",
"n$	c #0F1E0C",
"o$	c #101D0C",
"p$	c #368616",
"q$	c #2B6113",
"r$	c #2E5F18",
"s$	c #429719",
"t$	c #193B0D",
"u$	c #382C16",
"v$	c #060305",
"w$	c #95741A",
"x$	c #7F6117",
"y$	c #1D1508",
"z$	c #81642A",
"{$	c #181008",
"|$	c #5C440C",
"}$	c #6D510D",
"~$	c #382C15",
" %	c #3D2C0C",
"!%	c #AC7C12",
"#%	c #8A6418",
"$%	c #71500E",
"%%	c #040504",
"&%	c #215A11",
"'%	c #348A16",
"(%	c #1A400F",
")%	c #276F13",
"*%	c #216211",
"+%	c #091308",
",%	c #274F14",
"-%	c #38731F",
".%	c #3C8618",
"0%	c #091E06",
"1%	c #0A1206",
"2%	c #377F15",
"3%	c #295715",
"4%	c #030204",
"5%	c #654C18",
"6%	c #030203",
"7%	c #1A1308",
"8%	c #836517",
"9%	c #977317",
":%	c #100904",
";%	c #0F0B0B",
"<%	c #040202",
"=%	c #7D5C11",
">%	c #7F5D0D",
"?%	c #130C06",
"@%	c #AB7E18",
"A%	c #65460D",
"B%	c #6A4B0F",
"C%	c #070B06",
"D%	c #2B6F15",
"E%	c #235D11",
"F%	c #17450B",
"G%	c #276A15",
"H%	c #266318",
"I%	c #14300D",
"J%	c #070F04",
"K%	c #1C3912",
"L%	c #387315",
"M%	c #377C19",
"N%	c #306419",
"O%	c #429317",
"P%	c #2B6015",
"Q%	c #6C5417",
"R%	c #231807",
"S%	c #4B370F",
"T%	c #46340E",
"U%	c #8E6D12",
"V%	c #48360D",
"W%	c #050202",
"X%	c #382A0B",
"Y%	c #785617",
"Z%	c #AE8114",
"[%	c #271A08",
"]%	c #1C1206",
"^%	c #A07517",
"_%	c #6A470D",
"`%	c #68480E",
"a%	c #060E06",
"b%	c #2C7915",
"c%	c #2F8314",
"d%	c #1F5014",
"e%	c #2D8215",
"f%	c #1C4B0F",
"g%	c #152D10",
"h%	c #050C04",
"i%	c #295B12",
"j%	c #358215",
"k%	c #050B03",
"l%	c #285212",
"m%	c #408C19",
"n%	c #0F1D0B",
"o%	c #291F0B",
"p%	c #B78C17",
"q%	c #A57D1A",
"r%	c #37270B",
"s%	c #BE9011",
"t%	c #B4840F",
"u%	c #976F14",
"v%	c #0E0904",
"w%	c #694E10",
"x%	c #BA850D",
"y%	c #B68411",
"z%	c #503A0D",
"{%	c #6C4A10",
"|%	c #583D0B",
"}%	c #183B0F",
"~%	c #2E7E15",
" &	c #122E0A",
"!&	c #0B1F07",
"#&	c #278511",
"$&	c #0F2E0A",
"%&	c #224314",
"&&	c #3C8617",
"'&	c #0D1B07",
"(&	c #2D5E16",
")&	c #3C9015",
"*&	c #214812",
"+&	c #090E07",
",&	c #2E220B",
"-&	c #251C09",
".&	c #37280C",
"0&	c #080402",
"1&	c #030202",
"2&	c #291E0A",
"3&	c #241B09",
"4&	c #775412",
"5&	c #261A08",
"6&	c #0C160A",
"7&	c #245E14",
"8&	c #2B8411",
"9&	c #13340D",
":&	c #12300A",
";&	c #277B13",
"<&	c #28641A",
"=&	c #0B1E08",
">&	c #070D05",
"?&	c #234511",
"@&	c #204113",
"A&	c #3B8215",
"B&	c #3D8619",
"C&	c #204512",
"D&	c #326916",
"E&	c #408E1B",
"F&	c #0B1808",
"G&	c #2B210F",
"H&	c #040203",
"I&	c #173A0C",
"J&	c #2B7B13",
"K&	c #1D5211",
"L&	c #1D4D14",
"M&	c #278011",
"N&	c #1C530F",
"O&	c #194212",
"P&	c #163710",
"Q&	c #1F4310",
"R&	c #3B8A15",
"S&	c #030904",
"T&	c #1A330E",
"U&	c #3D8E16",
"V&	c #307015",
"W&	c #18320E",
"X&	c #1A3D12",
"Y&	c #2B7B15",
"Z&	c #2C8114",
"[&	c #0E2409",
"]&	c #247A13",
"^&	c #0D2109",
"_&	c #060D04",
"`&	c #3A7620",
"a&	c #367A17",
"b&	c #357B13",
"c&	c #2B5E18",
"d&	c #275612",
"e&	c #347715",
"f&	c #2D6D13",
"g&	c #10220A",
"h&	c #070D07",
"i&	c #0D180A",
"j&	c #0F290A",
"k&	c #277714",
"l&	c #205F12",
"m&	c #1E4F10",
"n&	c #205914",
"o&	c #267D13",
"p&	c #206412",
"q&	c #205618",
"r&	c #030403",
"s&	c #203D11",
"t&	c #1D3D13",
"u&	c #18310F",
"v&	c #3D9015",
"w&	c #285F11",
"x&	c #020305",
"y&	c #295E12",
"z&	c #3C9117",
"{&	c #3A8A18",
"|&	c #1E4611",
"}&	c #12260D",
"~&	c #040704",
" '	c #0C1809",
"!'	c #0C1F09",
"#'	c #1F5D11",
"$'	c #2E8214",
"%'	c #2A8512",
"&'	c #13360C",
"''	c #010403",
"('	c #227411",
")'	c #257712",
"*'	c #112A0D",
"+'	c #143A0E",
",'	c #0C1D0A",
"-'	c #224E14",
".'	c #296711",
"0'	c #295A15",
"1'	c #12250A",
"2'	c #2B6912",
"3'	c #348A13",
"4'	c #378718",
"5'	c #256014",
"6'	c #296115",
"7'	c #193F0E",
"8'	c #215214",
"9'	c #1F5412",
":'	c #236C13",
";'	c #2F8616",
"<'	c #298210",
"='	c #18430E",
">'	c #225E13",
"?'	c #226911",
"@'	c #257714",
"A'	c #13360F",
"B'	c #0C1B06",
"C'	c #38771F",
"D'	c #214615",
"E'	c #368B14",
"F'	c #2F7312",
"G'	c #050E05",
"H'	c #214C13",
"I'	c #214A11",
"J'	c #1F4A0F",
"K'	c #318812",
"L'	c #2D7212",
"M'	c #338C12",
"N'	c #2C8112",
"O'	c #2A7611",
"P'	c #2E8615",
"Q'	c #14310B",
"R'	c #205913",
"S'	c #0F2B0C",
"T'	c #081605",
"U'	c #258312",
"V'	c #257413",
"W'	c #205F15",
"X'	c #0F1C09",
"Y'	c #060F05",
"Z'	c #173210",
"['	c #307515",
"]'	c #378A14",
"^'	c #328016",
"_'	c #081705",
"`'	c #071505",
"a'	c #255715",
"b'	c #050A05",
"c'	c #245713",
"d'	c #17380D",
"e'	c #081107",
"f'	c #205713",
"g'	c #040903",
"h'	c #11350A",
"i'	c #2A7F14",
"j'	c #267E14",
"k'	c #1F5F13",
"l'	c #0E200C",
"m'	c #030503",
"n'	c #091B08",
"o'	c #010100",
"p'	c #1E4512",
"q'	c #2E671C",
"r'	c #183B0D",
"s'	c #296E12",
"t'	c #2F7F15",
"u'	c #2F8513",
"v'	c #2A7314",
"w'	c #0E2A08",
"x'	c #246614",
"y'	c #1F5210",
"z'	c #113609",
"{'	c #297C15",
"|'	c #297D13",
"}'	c #277913",
"~'	c #1E630E",
" (	c #14340F",
"!(	c #256C17",
"#(	c #0E250B",
"$(	c #1A350E",
"%(	c #040603",
"&(	c #1E4814",
"'(	c #276214",
"((	c #1D4E0E",
")(	c #205D0E",
"*(	c #287614",
"+(	c #297B13",
",(	c #257111",
"-(	c #257310",
".(	c #1D5C0F",
"0(	c #18430F",
"1(	c #152E0F",
"2(	c #020204",
"3(	c #091407",
"4(	c #0C240A",
"5(	c #204913",
"6(	c #122A0C",
"7(	c #183B11",
"8(	c #2A6A18",
"9(	c #081306",
":(	c #12280C",
";(	c #286818",
"<(	c #10240D",
"=(	c #050805",
">(	c #1A4512",
"?(	c #0D220B",
"@(	c #010004",
"A(	c #091607",
"B(	c #15370D",
"C(	c #1B4911",
"D(	c #010301",
"E(	c #020402",
"F(	c #020301",
"! ! ! ! ! ! ! ! ! # $ % & ' ( ) $ * $ & + , ! ! ! ! ! ! ! ! ! ! ",
"! ! ! ! ! ! ! ! ! ) - . 0 1 2 3 4 5 6 7 8 9 ! ! ! ! ! ! ! ! ! ! ",
"! ! ! ! ! ! % : ; 0 < = > ? @ A B C D E F G 0 H I & ! ! ! ! ! ! ",
"! ! ! ! ! ! + J K L M N O P Q R S T U V W X Y Z [ ] ! ! ! ! ! ! ",
"! ! ! ! ^ _ $ ` a b c d e f g h i j k l m n o p q r s t ! ! ! ! ",
"! ! ! ! u v w x y z { | } ~  !!!#!$!%!&!'!(!)!*!+!,!-!.!! ! ! ! ",
"! ! + # 0!1!2!3!4!5!6!7!8!9!:!;!<!=!>!?!@!A!B!C!D!E!F!G!+ + ! ! ",
"! ! H!I!J!K!L!M!N!O!P!Q!R!S!T!U!V!W!X!Y!Z![!]!^!_!`!a!b!c!d!! ! ",
"! ! e!f!g!h!i!j!k!l!m!n!o!# # # p!] & & q!r!s!t!u!v!w!x!y!z!! ! ",
"{!# |!}!~! #!###$#%#) ! ! ! ! ! ! ! ! ! ! + &#'#(#)#*#+#,#0 -#! ",
"T!.#0#1#2#3#4#5#6#7#p!! ! ! ! ! ! 8#9#:#p!;#<#=#>#?#@#A#B#C#D#7#",
"E#F#G#H#I#J#K#L#M#! ! ! ! ] N#& 0 O#P#Q#R#S#T#U#V#W#X#Y#Z#[#]#^#",
"0 V!_#`#a#b#c#d## ! ! ! ! % e#f#g#h#i#j#k#l#m#n#o##!p#q#r#s#t#8#",
"u#v#w#x#y#z#{#|#& }#~# $!$#$$$%$&$'$($)$*$+$,$-$.$0$1$2$3$4$5$6$",
"7$8$9$:$;$<$=$>$-#) ?$@$A$B$C$D$E$F$R#G$H$I$J$o!K$L$M$N$O$P$Q$R$",
"t#S$T$U$V$W$X$7#Y$Z$[$]$^$'$_$`$a$b$c$d$e$f$g$:#h$i$j$k$l$m$n$) ",
"0 o$p$q$r$s$t$G!u$v$R#w$x$y$z${$|$}$~$ %!%#%$%, %%&%'%(%)%*%+%-#",
",%-%.%0%1%2%3%4%5%6%7%8%9%:%;%<%=%>%r ?%@%A%B%# C%D%E%6$F%G%H%I%",
"J%K%L%M%N%O%P%h$Q%R%S%T%U%V%W%X%Y%Z%[%]%^%_%`%8#a%b%c%d%e%f%g%h%",
"] 7 i%j%k%l%m%n%o%p%q%:%r%s%t%u%v%w%x%y%z%{%|%% }%~% &!&#&$&t#& ",
"|!%&C!&&'&(&)&*&+&,&-&% 0 y$.&0&% 1&2&3&4%4&5&6&7&8&9&:&;&<&=&-#",
">&?&@&A&B&C&D&E&F&>$7#& {!p!p!p!! # p!# ) G&H&I&J&K&L&M&N&O&P&{!",
"p!{!4%Q&R&S&T&U&V&W&) p!! ! ! ! ! ! ! ! {!) X&Y&Z&h%[&]&^&) :#! ",
"! ! _&`&a&b&c&d&e&f&g&h&# ! ! ! ! ! # & i&j&k&l&m&n&o&p&q&r&! ! ",
"! ! s&t&u&v&w&x&y&z&{&|&}&~&r&$ 6$$  '!'#'$'%'&'''(')'*'+',':#! ",
"! ! ] % 0!-'(#.'0'1'2'3'4'5'6'7'8'9':';'<'='*#>'?'@'A'G!# & ! ! ",
"! ! ! ! B'C'D'E'F'G'H'I'J'K'L'M'N'O'P'Q'R'S'T'U'V'L&W'S&! ! ! ! ",
"! ! ! ! X'Y'6$Z'[']'^'_'`'a'b'c'd'e'f'g'h'i'j'k'l'm'n'h$! ! ! ! ",
"! ! ! ! ! ! o'p'q'r's't'u'v'w'x'y'z'{'|'}'~' (!(#(% ! ! ! ! ! ! ",
"! ! ! ! ! ! + $(%($ &('((()(*(+(,(-(.(0(x'1(2(3(4(# ! ! ! ! ! ! ",
"! ! ! ! ! ! ! p!] o!5(6(G!7(8(9(:(;(<(=(>(?(p!! :#! ! ! ! ! ! ! ",
"! ! ! ! ! ! ! ! ! @(a#) p!A(B(7#t#C(D() E(F(! ! ! ! ! ! ! ! ! ! "};