/* XPM */ 
static const unsigned char * bitcoin24_xpm[] = {
"24 24 414 2",
"  	c None",
"! 	c black",
"# 	c #000001",
"$ 	c #040604",
"% 	c #050904",
"& 	c #020103",
"' 	c #1B3A0F",
"( 	c #030403",
") 	c #050B04",
"* 	c #1A330F",
"+ 	c #010102",
", 	c #090E05",
"- 	c #020102",
". 	c #101D0B",
"0 	c #2A5818",
"1 	c #0C1609",
"2 	c #2D6118",
"3 	c #204411",
"4 	c #254D14",
"5 	c #285516",
"6 	c #0D1809",
"7 	c #35681B",
"8 	c #040703",
"9 	c #020101",
": 	c #030402",
"; 	c #1E3B10",
"< 	c #1A3710",
"= 	c #234610",
"> 	c #377815",
"? 	c #3B8A18",
"@ 	c #2D6B13",
"A 	c #2E7214",
"B 	c #286511",
"C 	c #357B14",
"D 	c #398517",
"E 	c #3C7B19",
"F 	c #1D380E",
"G 	c #295117",
"H 	c #15250C",
"I 	c #12210B",
"J 	c #091207",
"K 	c #19330F",
"L 	c #357917",
"M 	c #337D16",
"N 	c #16330C",
"O 	c #1B390F",
"P 	c #19330D",
"Q 	c #234C13",
"R 	c #284F15",
"S 	c #0D1E08",
"T 	c #245012",
"U 	c #357D15",
"V 	c #3D7918",
"W 	c #14250D",
"X 	c #0F1B0A",
"Y 	c #101C0A",
"Z 	c #14270C",
"[ 	c #2A6016",
"] 	c #378718",
"^ 	c #204A0F",
"_ 	c #101E09",
"` 	c #367816",
"a 	c #317316",
"b 	c #398718",
"c 	c #397F1A",
"d 	c #347B16",
"e 	c #3D8D1A",
"f 	c #336F17",
"g 	c #3C7C19",
"h 	c #050804",
"i 	c #2E6714",
"j 	c #3A8217",
"k 	c #356F1C",
"l 	c #091108",
"m 	c #010001",
"n 	c #070D04",
"o 	c #14280D",
"p 	c #162F0C",
"q 	c #3A8316",
"r 	c #091604",
"s 	c #2D6515",
"t 	c #327718",
"u 	c #2E6C14",
"v 	c #1D400F",
"w 	c #060E05",
"x 	c #0A1307",
"y 	c #060E04",
"z 	c #234C12",
"{ 	c #377C16",
"| 	c #367716",
"} 	c #275212",
"~ 	c #122D09",
" !	c #408717",
"!!	c #13240C",
"#!	c #172B0D",
"$!	c #020301",
"%!	c #010301",
"&!	c #265416",
"'!	c #2D7013",
"(!	c #225611",
")!	c #245310",
"*!	c #337B16",
"+!	c #173A0C",
",!	c #0E1A08",
"-!	c #225310",
".!	c #337313",
"0!	c #285513",
"1!	c #255C11",
"2!	c #317216",
"3!	c #224613",
"4!	c #010302",
"5!	c #070D06",
"6!	c #224A10",
"7!	c #2B6811",
"8!	c #081005",
"9!	c #3D861A",
":!	c #1D3F10",
";!	c #060A06",
"<!	c #0F1609",
"=!	c #245311",
">!	c #337215",
"?!	c #060D05",
"@!	c #378315",
"A!	c #18330E",
"B!	c #050A04",
"C!	c #0F1909",
"D!	c #2F671B",
"E!	c #2C6E12",
"F!	c #1C410F",
"G!	c #3A8618",
"H!	c #2E6B15",
"I!	c #070D05",
"J!	c #000103",
"K!	c #010101",
"L!	c #5C4820",
"M!	c #281F0F",
"N!	c #030103",
"O!	c #9D7518",
"P!	c #17210B",
"Q!	c #337915",
"R!	c #367618",
"S!	c #1D480E",
"T!	c #2C6F14",
"U!	c #2D5E1B",
"V!	c #060A07",
"W!	c #14280C",
"X!	c #388514",
"Y!	c #122309",
"Z!	c #367A18",
"[!	c #18340E",
"]!	c #14120A",
"^!	c #130E08",
"_!	c #433411",
"`!	c #150E08",
"a!	c #503D11",
"b!	c #352816",
"c!	c #B2800C",
"d!	c #38290E",
"e!	c #254F14",
"f!	c #2C6912",
"g!	c #102709",
"h!	c #358114",
"i!	c #020002",
"j!	c #224312",
"k!	c #2C6217",
"l!	c #276210",
"m!	c #285614",
"n!	c #378216",
"o!	c #020403",
"p!	c #0E0A05",
"q!	c #3E3211",
"r!	c #48380D",
"s!	c #161007",
"t!	c #2A2112",
"u!	c #9C7916",
"v!	c #080503",
"w!	c #926E0E",
"x!	c #3A2A0E",
"y!	c #A77810",
"z!	c #0B0504",
"{!	c #081205",
"|!	c #358916",
"}!	c #1B400F",
"~!	c #2A7213",
" #	c #225216",
"!#	c #162F0D",
"##	c #2C5D14",
"$#	c #265910",
"%#	c #1F450F",
"&#	c #337618",
"'#	c #060B06",
"(#	c #0F0C09",
")#	c #372A15",
"*#	c #3D2F0D",
"+#	c #A27C1F",
",#	c #0A0604",
"-#	c #1A140B",
".#	c #7D6010",
"0#	c #23190B",
"1#	c #543D0C",
"2#	c #4D380E",
"3#	c #A07311",
"4#	c #040101",
"5#	c #2D7814",
"6#	c #15330C",
"7#	c #2A6E12",
"8#	c #1C4413",
"9#	c #030703",
":#	c #090E08",
";#	c #255512",
"<#	c #265D10",
"=#	c #275513",
">#	c #367918",
"?#	c #070B06",
"@#	c #342712",
"A#	c #020104",
"B#	c #725914",
"C#	c #705514",
"D#	c #322510",
"E#	c #312513",
"F#	c #7A5A0D",
"G#	c #382A0F",
"H#	c #32240D",
"I#	c #956C15",
"J#	c #9F7013",
"K#	c #0B1609",
"L#	c #2E7C14",
"M#	c #1A3F0F",
"N#	c #256C11",
"O#	c #163A10",
"P#	c #020302",
"Q#	c #244913",
"R#	c #346D19",
"S#	c #2B6211",
"T#	c #214A10",
"U#	c #398117",
"V#	c #030404",
"W#	c #594314",
"X#	c #050203",
"Y#	c #6E5315",
"Z#	c #876513",
"[#	c #050204",
"]#	c #0C0805",
"^#	c #986F14",
"_#	c #46340B",
"`#	c #090503",
"a#	c #815E13",
"b#	c #986B14",
"c#	c #020001",
"d#	c #071205",
"e#	c #2F8213",
"f#	c #13320C",
"g#	c #296E13",
"h#	c #225817",
"i#	c #13310C",
"j#	c #152A0D",
"k#	c #388716",
"l#	c #1A330D",
"m#	c #3A7F16",
"n#	c #18300D",
"o#	c #5C4712",
"p#	c #846211",
"q#	c #3E2E0C",
"r#	c #664C0E",
"s#	c #98710D",
"t#	c #8E6812",
"u#	c #261B09",
"v#	c #A37711",
"w#	c #976C0E",
"x#	c #4C360B",
"y#	c #936613",
"z#	c #1D4811",
"{#	c #256811",
"|#	c #267C11",
"}#	c #071106",
"~#	c #0D1608",
" $	c #306719",
"!$	c #357814",
"#$	c #1B380E",
"$$	c #408C19",
"%$	c #2D6815",
"&$	c #0A0E07",
"'$	c #2C210C",
"($	c #030102",
")$	c #251C09",
"*$	c #0D0804",
"+$	c #100A05",
",$	c #1F1707",
"-$	c #060303",
".$	c #654813",
"0$	c #0D1908",
"1$	c #287014",
"2$	c #266D13",
"3$	c #173C0C",
"4$	c #246B13",
"5$	c #1F5315",
"6$	c #040704",
"7$	c #050903",
"8$	c #0E1A0A",
"9$	c #285512",
":$	c #2D6C12",
";$	c #0F1C09",
"<$	c #3E8719",
"=$	c #16340C",
">$	c #040302",
"?$	c #0C1108",
"@$	c #1A450E",
"A$	c #256A12",
"B$	c #091607",
"C$	c #247813",
"D$	c #14370D",
"E$	c #081306",
"F$	c #264E15",
"G$	c #367B14",
"H$	c #245010",
"I$	c #2D6415",
"J$	c #388116",
"K$	c #14310A",
"L$	c #0A1108",
"M$	c #081107",
"N$	c #19480F",
"O$	c #257012",
"P$	c #205611",
"Q$	c #194E0F",
"R$	c #246C13",
"S$	c #153610",
"T$	c #091005",
"U$	c #1A3510",
"V$	c #1D3B0F",
"W$	c #388615",
"X$	c #050F06",
"Y$	c #2E6916",
"Z$	c #368117",
"[$	c #296312",
"]$	c #16330E",
"^$	c #080F07",
"_$	c #030803",
"`$	c #193C0F",
"a$	c #256E12",
"b$	c #287612",
"c$	c #1A4A0E",
"d$	c #0C2308",
"e$	c #237B11",
"f$	c #10280C",
"g$	c #112E0C",
"h$	c #12240C",
"i$	c #296214",
"j$	c #378914",
"k$	c #1F4810",
"l$	c #0F2109",
"m$	c #337F15",
"n$	c #2E7512",
"o$	c #307F14",
"p$	c #2C7513",
"q$	c #297313",
"r$	c #2B8015",
"s$	c #276F11",
"t$	c #297715",
"u$	c #040904",
"v$	c #1D5B10",
"w$	c #257612",
"x$	c #205F15",
"y$	c #060E06",
"z$	c #15290B",
"{$	c #0E1B0B",
"|$	c #1B3910",
"}$	c #2F7613",
"~$	c #2C7313",
" %	c #132E0A",
"!%	c #17360E",
"#%	c #17390C",
"$%	c #205010",
"%%	c #16380B",
"&%	c #1F5010",
"'%	c #0A1A08",
"(%	c #17440E",
")%	c #226B10",
"*%	c #206B12",
"+%	c #0F260C",
",%	c #0E220A",
"-%	c #0B1A08",
".%	c #1A3B0F",
"0%	c #1C4212",
"1%	c #1F4C0F",
"2%	c #297012",
"3%	c #2E8413",
"4%	c #215E0F",
"5%	c #216310",
"6%	c #1F570E",
"7%	c #216A0F",
"8%	c #277B12",
"9%	c #236B12",
":%	c #13390B",
";%	c #1C5113",
"<%	c #0C2009",
"=%	c #060B04",
">%	c #0E1E0A",
"?%	c #255A15",
"@%	c #0D2009",
"A%	c #266417",
"B%	c #1B4A10",
"C%	c #1E5211",
"D%	c #205615",
"E%	c #0D1F0A",
"F%	c #255F17",
"G%	c #040804",
"H%	c #030302",
"I%	c #040903",
"J%	c #050905",
"K%	c #173D0F",
"L%	c #061005",
"M%	c #14340D",
"N%	c #071307",
"O%	c #000100",
"! ! ! ! ! ! # $ % & ' ( ) * + , # ! ! ! ! ! ! ! ",
"! ! ! ! ! ( - . 0 1 2 3 4 5 6 7 8 9 : ! ! ! ! ! ",
"! ! ! ! ! ; < = > ? @ A B C D E F G H # ! ! ! ! ",
"! ! ! I J K L M N O P Q P R S T U V W X Y ! ! ! ",
"! ! ! Z [ ] ^ _ ` a b c d e f g h i j k l m ! ! ",
"! n o p q r s t u v w x 1 y z { | } ~  !!!#!$!! ",
"! %!&!'!(!)!*!+!1 m m # ! # m ,!-!.!0!1!2!3!9 ! ",
"4!5!6!7!8!9!:!;!! ! ! ! ! ! ! ! <!=!>!?!@!A!B!+ ",
"C!D!E!F!G!H!I!! ! ! J!K!& L!M!N!O!P!Q!R!S!T!U!V!",
"& W!X!Y!Z![!m # # # ]!^!_!`!a!b!c!d!e!f!g!h!x i!",
"j!k!l!m!n!o!+ p!q!r!s!t!u!v!w!x!y!z!{!|!}!~! #!#",
"J ##$#%#&#'#(#)#*#+#,#-#.#0#1#2#3#4#6 5#6#7#8#9#",
":#;#<#=#>#?#@#A#B#C#D#E#F#G#H#I#J#- K#L#M#N#O#P#",
"Q#R#S#T#U#V#W#X#Y#Z#[#]#^#_#`#a#b#c#d#e#f#g#h#i#",
"+ j#k#l#m#n#o#p#q#r#s#t#u#v#w#x#y#- z#{#f#|#}#- ",
"~# $!$#$$$%$&$'$- ($)$*$+ +$,$-$.$0$1$2$3$4$5$6$",
"7$8$9$:$;$<$=$h # ! ! ! ! ! ! >$?$@$A$B$C$D$E$%!",
"! + F$G$H$I$J$K$L$m ! ! ! ! m M$N$O$P$Q$R$S$K!! ",
"! T$U$V$W$X$Y$Z$[$]$6$5!^$_$`$a$b$c$d$e$f$g$P#! ",
"! ! # h$i$j$k$l$m$n$o$p$q$r$s$t$u$v$w$x$y$! ! ! ",
"! ! ! z${$|$}$~$ %!%#%$%%%&%'%(%)%*%+%,%-%! ! ! ",
"! ! ! ! ! .%0%1%2%3%4%5%6%7%8%9%:%;%<%# ! ! ! ! ",
"! ! ! ! ! =%- >%?%@%A%B%C%D%E%F%G%H%I%! ! ! ! ! ",
"! ! ! ! ! ! m J%?!+ K%G%L%M%- N%O%! ! ! ! ! ! ! "};